<svg width="22" height="22" viewBox="0 0 22 22" fill="none" xmlns="http://www.w3.org/2000/svg">
<path d="M19.1991 5.56932L16.6962 1.20293C16.6283 1.08446 16.5029 1.01159 16.3672 1.01159H11.3573C11.2216 1.01159 11.0962 1.08446 11.0283 1.20293L9.24193 4.31946C9.11722 4.2854 8.98782 4.26807 8.85443 4.26807C8.16978 4.26807 7.59761 4.74105 7.42856 5.37798H4.08158L3.24964 3.62623C3.62935 3.35567 3.87944 2.91194 3.87944 2.40888C3.87944 1.58598 3.21477 0.916666 2.39803 0.916666C1.58129 0.916666 0.916626 1.58598 0.916626 2.40888C0.916626 3.23178 1.58129 3.90147 2.39803 3.90147C2.44375 3.90147 2.48686 3.89194 2.53156 3.88783L3.4127 5.7431L1.01269 9.93983C0.944815 10.0579 0.944815 10.2037 1.01269 10.3221L3.41038 14.5112L2.67232 15.9814C2.60166 15.9709 2.53119 15.9595 2.45775 15.9595C1.64101 15.9595 0.976342 16.6292 0.976342 17.4521C0.976342 18.275 1.64101 18.9443 2.45775 18.9443C3.27449 18.9443 3.93878 18.275 3.93878 17.4521C3.93878 16.9779 3.71401 16.5595 3.37078 16.2859L4.07667 14.8799H7.42856C7.59761 15.5167 8.16982 15.9894 8.85443 15.9894C8.98796 15.9894 9.11749 15.972 9.2418 15.9382L11.0283 19.0587C11.0962 19.1771 11.2216 19.25 11.3573 19.25H16.3672C16.5029 19.25 16.6283 19.1771 16.6962 19.0587L19.1991 14.6885C19.2669 14.5701 19.2669 14.4243 19.1991 14.3059L17.3672 11.1091C17.6417 10.8345 17.8026 10.4544 17.8026 10.0504C17.8026 9.67767 17.6641 9.32396 17.421 9.05265L19.1991 5.952C19.2669 5.83353 19.2669 5.68779 19.1991 5.56932ZM1.67625 2.40888C1.67625 2.00827 2.00005 1.68202 2.39803 1.68202C2.79602 1.68202 3.11982 2.00827 3.11982 2.40888C3.11982 2.80987 2.79602 3.13611 2.39803 3.13611C2.00005 3.13611 1.67625 2.80987 1.67625 2.40888ZM2.45775 18.179C2.05976 18.179 1.73596 17.8527 1.73596 17.4521C1.73596 17.0511 2.05976 16.7249 2.45775 16.7249C2.85536 16.7249 3.17916 17.0511 3.17916 17.4521C3.17916 17.8527 2.85536 18.179 2.45775 18.179ZM8.85443 5.03343C9.25338 5.03343 9.57621 5.36029 9.57621 5.76066C9.57621 6.1711 9.24632 6.48752 8.85443 6.48752C8.45644 6.48752 8.13264 6.16127 8.13264 5.76066C8.13264 5.35967 8.45644 5.03343 8.85443 5.03343ZM4.06044 6.14334H7.42235C7.62855 6.92564 8.4479 7.41686 9.24119 7.20186L10.9187 10.1307L9.24203 13.0558L9.24022 13.0554C8.43561 12.8365 7.62473 13.3465 7.42235 14.1145H4.06044L1.7801 10.1308L4.06044 6.14334ZM8.13264 14.4972C8.13264 14.0962 8.45644 13.77 8.85443 13.77C9.25338 13.77 9.57621 14.0968 9.57621 14.4972C9.57621 14.9076 9.24632 15.2241 8.85443 15.2241C8.45644 15.2241 8.13264 14.8978 8.13264 14.4972ZM16.148 18.4846H11.5765L9.90002 15.5559C10.1841 15.2718 10.3358 14.8655 10.3358 14.4972C10.3358 14.0953 10.1588 13.7006 9.89965 13.4401L11.5766 10.5135H14.9132C15.1433 11.2298 15.9277 11.7032 16.7073 11.4918L16.7091 11.4915L18.4316 14.4972L16.148 18.4846ZM17.043 10.0504C17.043 10.4588 16.7151 10.7773 16.3215 10.7773C15.9432 10.7773 15.6276 10.4821 15.6031 10.1058C15.6024 10.0945 15.6012 10.0613 15.5998 10.0504C15.5998 9.64946 15.9236 9.32321 16.3215 9.32321C16.7032 9.32321 17.043 9.63842 17.043 10.0504ZM16.7841 8.63335C16.7792 8.63171 16.7741 8.6312 16.7692 8.62966C16.6894 8.60387 16.5017 8.55786 16.3215 8.55786C15.6458 8.55786 15.0126 9.05428 14.8706 9.74812H11.5768L9.90002 6.81937C10.1795 6.53991 10.3358 6.13635 10.3358 5.76066C10.3358 5.35848 10.1622 4.9675 9.89965 4.70354L11.5765 1.77694H16.148L18.4313 5.76066L16.7841 8.63335Z" fill="white"/>
<path d="M4.7188 13.3492H6.72022C6.93016 13.3492 7.10003 13.178 7.10003 12.9665C7.10003 12.755 6.93016 12.5838 6.72022 12.5838H4.93838L3.53412 10.1304L4.93875 7.67404H6.72022C6.93016 7.67404 7.10003 7.50288 7.10003 7.29137C7.10003 7.07985 6.93016 6.90869 6.72022 6.90869H4.71918C4.58342 6.90869 4.45806 6.98194 4.39018 7.1004L2.76672 9.93946C2.69884 10.0575 2.69884 10.2033 2.76672 10.3218L4.38981 13.1578C4.45768 13.2763 4.58305 13.3492 4.7188 13.3492Z" fill="white"/>
</svg>
