<svg width="22" height="22" viewBox="0 0 22 22" fill="none" xmlns="http://www.w3.org/2000/svg">
<path d="M13.1154 5.82906V5.12393H8.88466V5.82906C8.88466 6.21849 8.56896 6.53419 8.17953 6.53419C7.7901 6.53419 7.4744 6.21849 7.4744 5.82906V5.12852C7.05499 5.13235 6.81768 5.14127 6.61411 5.17351C4.90457 5.44438 3.56409 6.78486 3.29322 8.49441C3.24622 8.79119 3.24364 9.15946 3.24364 10.0598V11.9402C3.24364 13.268 3.24402 14.2216 3.30516 14.97C3.36564 15.7103 3.48175 16.1881 3.67884 16.5749C4.06191 17.3267 4.67332 17.9381 5.42513 18.3212C5.81194 18.5183 6.28976 18.6344 7.03003 18.6949C7.77849 18.756 8.73203 18.7564 10.0599 18.7564H11.9402C13.2681 18.7564 14.2216 18.756 14.9701 18.6949C15.7103 18.6344 16.1881 18.5183 16.575 18.3212C17.3268 17.9381 17.9382 17.3267 18.3212 16.5749C18.5183 16.1881 18.6344 15.7103 18.6949 14.97C18.7561 14.2216 18.7564 13.268 18.7564 11.9402V10.0598C18.7564 9.15946 18.7539 8.79119 18.7069 8.49441C18.436 6.78486 17.0955 5.44438 15.386 5.17351C15.1824 5.14127 14.9451 5.13235 14.5257 5.12852V5.82906C14.5257 6.21849 14.21 6.53419 13.8205 6.53419C13.4311 6.53419 13.1154 6.21849 13.1154 5.82906ZM20.1667 11.9402C20.1667 13.2447 20.1675 14.2656 20.1006 15.0848C20.033 15.9123 19.8925 16.5961 19.5773 17.2149C19.059 18.232 18.2321 19.0589 17.2149 19.5772C16.5961 19.8925 15.9123 20.033 15.0848 20.1006C14.2656 20.1675 13.2448 20.1667 11.9402 20.1667H10.0599C8.75533 20.1667 7.73445 20.1675 6.91526 20.1006C6.08778 20.033 5.40394 19.8925 4.78519 19.5772C3.76801 19.0589 2.94112 18.232 2.42283 17.2149C2.10756 16.5961 1.9671 15.9123 1.89949 15.0848C1.83259 14.2656 1.83339 13.2447 1.83339 11.9402V10.0598C1.83339 9.21344 1.83077 8.70806 1.89949 8.27405C2.26586 5.96087 4.08058 4.14615 6.39376 3.77978C6.6914 3.73265 7.02268 3.72227 7.4744 3.71826V2.53846C7.4744 2.14903 7.7901 1.83333 8.17953 1.83333C8.56896 1.83333 8.88466 2.14903 8.88466 2.53846V3.71367H13.1154V2.53846C13.1154 2.14903 13.4311 1.83333 13.8205 1.83333C14.21 1.83333 14.5257 2.14903 14.5257 2.53846V3.71826C14.9774 3.72227 15.3087 3.73265 15.6063 3.77978C17.9195 4.14615 19.7342 5.96087 20.1006 8.27405C20.1693 8.70806 20.1667 9.21344 20.1667 10.0598V11.9402Z" fill="white"/>
<path d="M6.29919 9.11966C6.29919 8.60041 6.72012 8.17949 7.23936 8.17949C7.7586 8.17949 8.17953 8.60041 8.17953 9.11966C8.17953 9.6389 7.7586 10.0598 7.23936 10.0598C6.72012 10.0598 6.29919 9.6389 6.29919 9.11966Z" fill="white"/>
<path d="M10.0599 9.11966C10.0599 8.60041 10.4808 8.17949 11 8.17949C11.5193 8.17949 11.9402 8.60041 11.9402 9.11966C11.9402 9.6389 11.5193 10.0598 11 10.0598C10.4808 10.0598 10.0599 9.6389 10.0599 9.11966Z" fill="white"/>
<path d="M10.0599 15.7009C10.0599 15.1816 10.4808 14.7607 11 14.7607C11.5193 14.7607 11.9402 15.1816 11.9402 15.7009C11.9402 16.2201 11.5193 16.641 11 16.641C10.4808 16.641 10.0599 16.2201 10.0599 15.7009Z" fill="white"/>
<path d="M13.8205 15.7009C13.8205 15.1816 14.2415 14.7607 14.7607 14.7607C15.28 14.7607 15.7009 15.1816 15.7009 15.7009C15.7009 16.2201 15.28 16.641 14.7607 16.641C14.2415 16.641 13.8205 16.2201 13.8205 15.7009Z" fill="white"/>
</svg>
