<svg width="20" height="20" viewBox="0 0 20 20" fill="none" xmlns="http://www.w3.org/2000/svg">
<path d="M5.84916 7.72452C6.32472 7.56845 6.8376 7.56845 7.31316 7.72452C7.74072 7.86486 8.07059 8.1559 8.37486 8.50348C8.67641 8.84795 9.01158 9.31869 9.42154 9.89341L9.85473 10.501C10.1978 10.982 10.3005 11.1157 10.3906 11.1906C10.7357 11.4773 11.2233 11.5177 11.6109 11.2917C11.712 11.2326 11.8347 11.1168 12.2519 10.6991C12.5598 10.3908 12.79 10.155 13.0407 10.0004C13.7964 9.5343 14.7505 9.5343 15.5063 10.0004C15.7569 10.155 15.9872 10.3908 16.295 10.6991L17.0512 11.4563V8.47088C17.0512 7.17289 17.0506 6.25064 16.9736 5.53891C16.8979 4.83926 16.7542 4.41943 16.5204 4.09716C16.3491 3.86108 16.1418 3.65355 15.9061 3.48201C15.5842 3.24787 15.165 3.10399 14.4663 3.02818C13.7555 2.95107 12.8345 2.95045 11.5383 2.95045H8.46167C7.16543 2.95045 6.24442 2.95107 5.53365 3.02818C4.83495 3.10399 4.41569 3.24787 4.09385 3.48201C3.85809 3.65355 3.65084 3.86108 3.47954 4.09716C3.24571 4.41943 3.10202 4.83926 3.02631 5.53891C2.9493 6.25064 2.94869 7.17289 2.94869 8.47088V11.0033L3.74079 9.89341C4.15074 9.31869 4.48591 8.84795 4.78746 8.50348C5.09173 8.1559 5.4216 7.86486 5.84916 7.72452ZM6.91419 8.94394C6.69803 8.873 6.46429 8.873 6.24813 8.94394C6.14302 8.9785 5.99791 9.06786 5.7515 9.3493C5.50207 9.63424 5.20973 10.0423 4.78412 10.6389L2.94869 13.2107C2.94923 13.4772 2.95178 13.6027 2.96204 13.7071C3.09193 15.0278 4.13554 16.0728 5.45436 16.2028C5.58224 16.2154 5.74187 16.2162 6.15381 16.2162H13.8461C14.2581 16.2162 14.4177 16.2154 14.5456 16.2028C15.8644 16.0728 16.908 15.0278 17.0379 13.7071C17.0473 13.6109 17.0488 13.4967 17.0496 13.2709L15.3877 11.6076C15.0279 11.2473 14.924 11.1486 14.8335 11.0928C14.4901 10.8812 14.0568 10.8812 13.7134 11.0928C13.6229 11.1486 13.519 11.2473 13.1592 11.6076C12.8025 11.9648 12.538 12.2372 12.2561 12.4016C11.4035 12.8989 10.3311 12.8094 9.57178 12.1785C9.32082 11.9699 9.10442 11.6582 8.81139 11.2474L8.3782 10.6389C7.95259 10.0423 7.66025 9.63424 7.41082 9.3493C7.16441 9.06786 7.0193 8.9785 6.91419 8.94394ZM14.4871 6.37387C14.4871 5.90119 14.1045 5.51801 13.6324 5.51801C13.1604 5.51801 12.7777 5.90119 12.7777 6.37387C12.7777 6.84654 13.1604 7.22972 13.6324 7.22972C14.1045 7.22972 14.4871 6.84654 14.4871 6.37387ZM18.3333 13.0067C18.3333 13.3889 18.3344 13.6267 18.3141 13.8333C18.1242 15.7633 16.599 17.2906 14.6716 17.4808C14.4652 17.5011 14.2277 17.5 13.8461 17.5H6.15381C5.77219 17.5 5.53471 17.5011 5.32832 17.4808C3.40095 17.2906 1.87574 15.7633 1.68583 13.8333C1.66551 13.6267 1.66664 13.3889 1.66664 13.0067V8.47088C1.66664 7.20162 1.66557 6.1979 1.75177 5.401C1.8393 4.59205 2.02295 3.92004 2.44204 3.34244C2.69244 2.99734 2.99551 2.69385 3.34015 2.44312C3.91698 2.02346 4.58808 1.83956 5.39593 1.75192C6.19175 1.6656 7.19412 1.66666 8.46167 1.66666H11.5383C12.8058 1.66666 13.8082 1.6656 14.604 1.75192C15.4118 1.83956 16.0829 2.02346 16.6598 2.44312C17.0044 2.69385 17.3075 2.99734 17.5579 3.34244C17.977 3.92004 18.1606 4.59205 18.2481 5.401C18.3343 6.1979 18.3333 7.20162 18.3333 8.47088V13.0067ZM15.7692 6.37387C15.7692 7.55556 14.8125 8.51351 13.6324 8.51351C12.4523 8.51351 11.4957 7.55556 11.4957 6.37387C11.4957 5.19218 12.4523 4.23423 13.6324 4.23423C14.8125 4.23423 15.7692 5.19218 15.7692 6.37387Z" fill="white"/>
</svg>
