<svg width="20" height="20" viewBox="0 0 20 20" fill="none" xmlns="http://www.w3.org/2000/svg">
<path d="M17.7565 10C17.7565 5.71626 14.2838 2.24359 10 2.24359C5.71629 2.24359 2.24363 5.71626 2.24363 10C2.24363 14.2837 5.71629 17.7564 10 17.7564C14.2838 17.7564 17.7565 14.2837 17.7565 10ZM9.29491 13.0556V10.235C9.29491 9.84561 9.61061 9.52992 10 9.52992C10.3895 9.52992 10.7052 9.84561 10.7052 10.235V13.0556C10.7052 13.445 10.3895 13.7607 10 13.7607C9.61061 13.7607 9.29491 13.445 9.29491 13.0556ZM19.1667 10C19.1667 15.0626 15.0627 19.1667 10 19.1667C4.93743 19.1667 0.833374 15.0626 0.833374 10C0.833374 4.93739 4.93743 0.833336 10 0.833336C15.0627 0.833336 19.1667 4.93739 19.1667 10Z" fill="white"/>
<path d="M10.9402 7.17949C10.9402 7.69873 10.5193 8.11966 10 8.11966C9.4808 8.11966 9.05987 7.69873 9.05987 7.17949C9.05987 6.66025 9.4808 6.23932 10 6.23932C10.5193 6.23932 10.9402 6.66025 10.9402 7.17949Z" fill="white"/>
</svg>
