<svg width="24" height="24" viewBox="0 0 24 24" fill="none" xmlns="http://www.w3.org/2000/svg">
<path d="M21.8636 20.6289V20.6197H6.55412C5.29712 20.6197 4.27796 19.56 4.27267 18.2486V3.18557C4.27267 2.53123 3.76355 2 3.13634 2C2.50913 2 2 2.53118 2 3.18557V18.2486C2 20.8724 4.03921 23 6.55412 23H21.8637C22.4908 23 23 22.4688 23 21.8144C23 21.16 22.4908 20.6289 21.8636 20.6289Z" fill="white"/>
<path d="M20.4895 7.00875C19.9856 6.6154 19.2721 6.72199 18.8951 7.2477L16.2525 11.1996L12.5176 8.26783C12.0164 7.87448 11.3038 7.97924 10.9267 8.50221C10.9258 8.50405 10.925 8.50495 10.9232 8.50679L7.67282 13.3777C7.29318 13.8987 7.39096 14.6432 7.89041 15.0393C8.08154 15.1909 8.3141 15.2755 8.55371 15.2801V15.3076C8.90164 15.2975 9.22669 15.1211 9.4346 14.8297L12.0772 10.8779L15.8121 13.8096C16.3133 14.203 17.026 14.0982 17.403 13.5752C17.4038 13.5734 17.4047 13.5725 17.4065 13.5706L20.7186 8.67218C21.0955 8.14652 20.9934 7.4021 20.4895 7.00875Z" fill="white"/>
</svg>
