<svg width="22" height="22" viewBox="0 0 22 22" fill="none" xmlns="http://www.w3.org/2000/svg">
<path d="M11 1.83333C15.9536 1.83333 20.1216 5.90355 19.0926 11.1091C18.7515 12.8341 17.7454 14.4481 16.6173 15.8051C15.4821 17.1707 14.1772 18.3306 13.1614 19.1466C12.5502 19.6376 12.0714 20.0462 11.3411 20.146C11.1394 20.1736 10.8607 20.1736 10.659 20.146C9.92884 20.0462 9.45071 19.6375 8.8396 19.1466C7.8238 18.3306 6.51807 17.1708 5.38273 15.8051C4.25472 14.4481 3.24861 12.834 2.90746 11.1091C1.87814 5.90353 6.04653 1.83339 11 1.83333ZM11 3.23911C6.74414 3.23917 3.4464 6.66665 4.26994 10.8327C4.54515 12.2245 5.38531 13.6241 6.44666 14.9009C7.50079 16.1688 8.72898 17.2635 9.70359 18.0465C10.3932 18.6005 10.5655 18.7148 10.8453 18.753C10.9236 18.7637 11.0764 18.7637 11.1547 18.753C11.4347 18.7148 11.6075 18.6007 12.2974 18.0465C13.2721 17.2635 14.5002 16.1689 15.5543 14.9009C16.6157 13.6241 17.455 12.2245 17.7301 10.8327C18.5535 6.66654 15.2559 3.23911 11 3.23911ZM13.0845 10.1747C13.0845 9.01007 12.1512 8.06599 11 8.06599C9.84883 8.06599 8.9156 9.01007 8.9156 10.1747C8.91579 11.3391 9.84895 12.2833 11 12.2833C12.1511 12.2833 13.0843 11.3391 13.0845 10.1747ZM14.4741 10.1747C14.4739 12.1155 12.9186 13.6891 11 13.6891C9.08148 13.6891 7.52617 12.1155 7.52597 10.1747C7.52597 8.23368 9.08136 6.66021 11 6.66021C12.9187 6.66021 14.4741 8.23368 14.4741 10.1747Z" fill="white"/>
</svg>
