<svg width="20" height="20" viewBox="0 0 24 24" fill="none" xmlns="http://www.w3.org/2000/svg">
<g clip-path="url(#clip0_317_495)">
<path d="M13.2929 10.7071C13.6834 11.0976 14.3166 11.0976 14.7071 10.7071L22 3.41419V7.99997C22 8.55225 22.4477 8.99995 23 8.99995C23.5523 8.99995 24 8.55225 24 7.99997V0.999985L23.9999 0.998953C23.9999 0.966375 23.9982 0.933797 23.995 0.901312C23.9936 0.886406 23.9907 0.871922 23.9886 0.85725C23.9861 0.839672 23.984 0.822094 23.9806 0.804656C23.9773 0.787828 23.9727 0.771468 23.9685 0.754922C23.9647 0.739828 23.9614 0.724688 23.9569 0.709735C23.9519 0.693516 23.9459 0.677859 23.9402 0.662016C23.9348 0.647109 23.9299 0.632062 23.9238 0.617344C23.9177 0.602531 23.9105 0.588375 23.9037 0.573938C23.8965 0.558797 23.8898 0.543516 23.8819 0.528656C23.8744 0.514828 23.866 0.501703 23.858 0.488297C23.8493 0.473719 23.8411 0.458953 23.8316 0.44475C23.8217 0.429938 23.8106 0.416016 23.8 0.401766C23.7911 0.389906 23.7829 0.377719 23.7733 0.366187C23.7315 0.315234 23.6848 0.268453 23.6338 0.226641C23.6223 0.217172 23.6101 0.208922 23.5982 0.200015C23.584 0.189328 23.57 0.178313 23.5552 0.168422C23.541 0.158906 23.5263 0.150657 23.5117 0.141985C23.4983 0.133969 23.4852 0.125531 23.4713 0.118125C23.4565 0.110203 23.4412 0.103453 23.426 0.0963285C23.4116 0.0895316 23.3974 0.0823125 23.3826 0.0761718C23.3679 0.0700781 23.3529 0.0651563 23.338 0.0598125C23.3221 0.0540938 23.3065 0.0480468 23.2902 0.0431249C23.2753 0.0386249 23.2602 0.0352967 23.2451 0.0314998C23.2285 0.027328 23.2122 0.0226872 23.1953 0.0193591C23.1779 0.0158903 23.1603 0.0138283 23.1427 0.0113439C23.128 0.00923457 23.1136 0.00646887 23.0987 0.00496887C23.0662 0.00178138 23.0336 4.72039e-05 23.001 4.72068e-05L23 0L16 6.11958e-07C15.4477 6.6024e-07 15 0.447704 15 0.999985C15 1.55227 15.4477 1.99997 16 1.99997L20.5858 1.99997L13.2929 9.29288C12.9024 9.68339 12.9024 10.3165 13.2929 10.7071Z" fill="white"/>
<path d="M0.00448149 23.0987C0.00593462 23.1136 0.00874719 23.1281 0.0108566 23.1428C0.0133878 23.1603 0.0154498 23.1779 0.0188717 23.1954C0.0221998 23.2122 0.0268406 23.2286 0.0310125 23.2451C0.0348093 23.2602 0.0380906 23.2753 0.0426375 23.2903C0.0475594 23.3065 0.0536064 23.3222 0.0593251 23.338C0.0646689 23.3529 0.0695907 23.368 0.0756845 23.3827C0.0818251 23.3975 0.0889973 23.4116 0.0958411 23.4261C0.102966 23.4412 0.109716 23.4565 0.117638 23.4714C0.125044 23.4852 0.133482 23.4983 0.141497 23.5117C0.150216 23.5263 0.158419 23.5411 0.167935 23.5553C0.177825 23.5701 0.188887 23.584 0.199528 23.5983C0.208434 23.6101 0.216638 23.6223 0.226154 23.6338C0.267966 23.6848 0.3147 23.7316 0.3657 23.7734C0.377231 23.7828 0.389419 23.7911 0.401278 23.8C0.415528 23.8107 0.42945 23.8217 0.444263 23.8316C0.458466 23.8411 0.473232 23.8494 0.48781 23.858C0.501216 23.866 0.514341 23.8745 0.528169 23.8819C0.543028 23.8898 0.55831 23.8966 0.57345 23.9037C0.587888 23.9105 0.602091 23.9177 0.616856 23.9238C0.631575 23.9299 0.646622 23.9349 0.661528 23.9402C0.677372 23.9459 0.693029 23.952 0.709247 23.9569C0.724153 23.9614 0.73934 23.9647 0.754434 23.9685C0.770981 23.9727 0.787294 23.9773 0.804169 23.9807C0.821606 23.9841 0.839231 23.9862 0.856762 23.9887C0.871481 23.9908 0.885919 23.9936 0.900825 23.9951C0.933637 23.9983 0.966544 24 0.999497 24H7.99948C8.55176 24 8.99946 23.5523 8.99946 23C8.99946 22.4478 8.55176 22.0001 7.99948 22.0001L3.4137 22L10.7066 14.7071C11.0971 14.3166 11.0971 13.6834 10.7066 13.2929C10.3161 12.9024 9.6829 12.9024 9.29239 13.2929L1.99948 20.5858L1.99948 16C1.99948 15.4478 1.55178 15.0001 0.999498 15.0001C0.447217 15.0001 -0.000486719 15.4478 -0.000486767 16L-0.000487379 23C-0.000534257 23.033 0.00124712 23.0659 0.00448149 23.0987Z" fill="white"/>
</g>
<defs>
<clipPath id="clip0_317_495">
<rect width="24" height="24" fill="white"/>
</clipPath>
</defs>
</svg>
