<svg width="24" height="24" viewBox="0 0 24 24" fill="none" xmlns="http://www.w3.org/2000/svg">
<g clip-path="url(#clip0_317_491)">
<path d="M23.7071 0.292887C23.3166 -0.0976289 22.6834 -0.0976289 22.2929 0.292887L15 7.58579V3.00001C15 2.44773 14.5523 2.00003 14 2.00003C13.4477 2.00003 13 2.44773 13 3.00001V10L13.0001 10.001C13.0001 10.0336 13.0018 10.0662 13.005 10.0987C13.0065 10.1136 13.0093 10.1281 13.0114 10.1427C13.0139 10.1603 13.016 10.1779 13.0194 10.1953C13.0227 10.2122 13.0274 10.2285 13.0315 10.2451C13.0353 10.2602 13.0386 10.2753 13.0432 10.2902C13.0481 10.3065 13.0541 10.3221 13.0599 10.338C13.0652 10.3529 13.0701 10.3679 13.0762 10.3826C13.0824 10.3974 13.0895 10.4116 13.0964 10.426C13.1035 10.4412 13.1102 10.4565 13.1182 10.4713C13.1256 10.4852 13.134 10.4983 13.142 10.5117C13.1507 10.5263 13.1589 10.541 13.1685 10.5552C13.1784 10.57 13.1894 10.584 13.2001 10.5982C13.209 10.6101 13.2172 10.6223 13.2267 10.6338C13.2685 10.6847 13.3152 10.7315 13.3662 10.7733C13.3778 10.7828 13.3899 10.7911 13.4018 10.8C13.4161 10.8107 13.43 10.8217 13.4448 10.8316C13.459 10.8411 13.4738 10.8493 13.4883 10.858C13.5017 10.866 13.5149 10.8744 13.5287 10.8819C13.5436 10.8898 13.5588 10.8965 13.574 10.9037C13.5884 10.9104 13.6026 10.9177 13.6174 10.9238C13.6321 10.9299 13.6472 10.9348 13.6621 10.9402C13.6779 10.9459 13.6936 10.9519 13.7098 10.9569C13.7247 10.9614 13.7399 10.9647 13.755 10.9685C13.7715 10.9727 13.7878 10.9773 13.8047 10.9806C13.8221 10.9841 13.8398 10.9862 13.8573 10.9886C13.872 10.9907 13.8864 10.9935 13.9014 10.995C13.9338 10.9982 13.9664 10.9999 13.999 10.9999L14 11H21C21.5523 11 22 10.5523 22 10C22 9.44771 21.5523 9.00001 21 9.00001H16.4142L23.7071 1.70711C24.0977 1.31659 24.0977 0.683449 23.7071 0.292887Z" fill="white"/>
<path d="M10.995 13.9014C10.9936 13.8864 10.9907 13.872 10.9886 13.8573C10.9861 13.8397 10.984 13.8221 10.9806 13.8047C10.9773 13.7879 10.9727 13.7715 10.9685 13.755C10.9647 13.7399 10.9614 13.7247 10.9569 13.7098C10.9519 13.6936 10.9459 13.6779 10.9402 13.6621C10.9348 13.6472 10.9299 13.6321 10.9238 13.6174C10.9177 13.6026 10.9105 13.5884 10.9037 13.574C10.8965 13.5588 10.8898 13.5436 10.8819 13.5287C10.8744 13.5149 10.866 13.5017 10.858 13.4883C10.8493 13.4738 10.8411 13.459 10.8316 13.4448C10.8217 13.43 10.8106 13.4161 10.8 13.4018C10.7911 13.3899 10.7829 13.3778 10.7733 13.3662C10.7315 13.3153 10.6848 13.2685 10.6338 13.2267C10.6223 13.2172 10.6101 13.209 10.5982 13.2001C10.584 13.1894 10.57 13.1784 10.5552 13.1685C10.541 13.1589 10.5263 13.1507 10.5117 13.142C10.4983 13.134 10.4852 13.1256 10.4713 13.1182C10.4565 13.1102 10.4412 13.1035 10.426 13.0964C10.4116 13.0896 10.3974 13.0824 10.3826 13.0762C10.3679 13.0701 10.3529 13.0652 10.338 13.0599C10.3221 13.0541 10.3065 13.0481 10.2902 13.0432C10.2753 13.0387 10.2602 13.0353 10.2451 13.0315C10.2285 13.0274 10.2122 13.0227 10.1953 13.0194C10.1779 13.0159 10.1603 13.0139 10.1427 13.0114C10.128 13.0093 10.1136 13.0065 10.0987 13.005C10.0659 13.0018 10.0329 13 10 13H3.00001C2.44773 13 2.00003 13.4477 2.00003 14C2.00003 14.5523 2.44773 15 3.00001 15H7.58579L0.292887 22.2929C-0.0976289 22.6834 -0.0976289 23.3166 0.292887 23.7071C0.683402 24.0977 1.31659 24.0977 1.70711 23.7071L9.00001 16.4142V21C9.00001 21.5523 9.44771 22 10 22C10.5523 22 11 21.5523 11 21V14C11 13.9671 10.9982 13.9342 10.995 13.9014Z" fill="white"/>
</g>
<defs>
<clipPath id="clip0_317_491">
<rect width="24" height="24" fill="white"/>
</clipPath>
</defs>
</svg>
