<svg width="20" height="20" viewBox="0 0 20 20" fill="none" xmlns="http://www.w3.org/2000/svg">
<path d="M9.28567 17.619V10.7143H2.38091C1.98642 10.7143 1.66663 10.3945 1.66663 9.99999C1.66663 9.6055 1.98642 9.2857 2.38091 9.2857H9.28567V2.38094C9.28567 1.98645 9.60547 1.66666 9.99996 1.66666C10.3944 1.66666 10.7142 1.98645 10.7142 2.38094V9.2857H17.619L17.6925 9.28942C18.0525 9.32621 18.3333 9.63031 18.3333 9.99999C18.3333 10.3697 18.0525 10.6738 17.6925 10.7106L17.619 10.7143H10.7142V17.619C10.7142 18.0135 10.3944 18.3333 9.99996 18.3333C9.60547 18.3333 9.28567 18.0135 9.28567 17.619Z" fill="white"/>
</svg>
