<svg xmlns="http://www.w3.org/2000/svg" width="163" height="87" viewBox="0 0 163 87" fill="none">
<path d="M119.958 9C116.967 11.6504 113.066 13.1194 109.021 13.1194C104.975 13.1194 101.074 11.6504 98.0829 9C95.092 11.6507 91.192 13.1199 87.1463 13.1199C83.1005 13.1199 79.2005 11.6507 76.2097 9C73.2188 11.6507 69.3188 13.1199 65.273 13.1199C61.2273 13.1199 57.3273 11.6507 54.3364 9C51.345 11.6504 47.4447 13.1194 43.3988 13.1194C39.3528 13.1194 35.4525 11.6504 32.4611 9C29.4703 11.6507 25.5702 13.1199 21.5245 13.1199C17.4788 13.1199 13.5787 11.6507 10.5879 9V83.1426H141.831V9C138.841 11.6507 134.941 13.1199 130.895 13.1199C126.849 13.1199 122.949 11.6507 119.958 9Z" fill="#2176FF"/>
<path d="M19 74.3511L142.529 75C145.019 71.5394 150 63.9694 150 61.3739C150 58.1296 138.046 53.5876 129.578 54.5609C121.11 55.5342 105.949 57.8244 92.5 57.5C79.0513 57.1756 70.9867 54.2364 67.5 53.5876C64.0133 52.9387 51.4582 50.8511 40.5 51.5C31.7335 52.0191 23.3169 54.669 19 57.1563V74.3511Z" fill="#F0C039"/>
<path d="M26.272 59.6649V3H7.5V71.9456L19.5224 74.6332L46.6431 71.9456C35.3924 71.9456 26.272 66.4474 26.272 59.6649Z" fill="#4A4E69"/>
<path d="M137.728 59.6649V3H156.5V71.9456L149.735 75.1177L117.357 71.9456C128.608 71.9456 137.728 66.4474 137.728 59.6649Z" fill="#4A4E69"/>
<path d="M7.5 71.9456V83H82L97.5018 76.4202L82 71.9456H7.5Z" fill="#4A4E69"/>
<path d="M82 71.9456H156.5V83H82V71.9456Z" fill="#4A4E69"/>
</svg>
