<svg width="40" height="40" viewBox="0 0 40 40" fill="none" xmlns="http://www.w3.org/2000/svg">
<path d="M20 20H35M35 20L30.8333 15.8333M35 20L30.8333 24.1667M25 14.1667V10.4C25 8.15016 25 7.02524 24.4271 6.23664C24.242 5.98196 24.018 5.75799 23.7634 5.57295C22.9748 5 21.8498 5 19.6 5H10.4C8.15016 5 7.02524 5 6.23664 5.57295C5.98196 5.75799 5.75799 5.98196 5.57295 6.23664C5 7.02524 5 8.15016 5 10.4V29.6C5 31.8498 5 32.9748 5.57295 33.7634C5.75799 34.018 5.98196 34.242 6.23664 34.4271C7.02524 35 8.15016 35 10.4 35H19.6C21.8498 35 22.9748 35 23.7634 34.4271C24.018 34.242 24.242 34.018 24.4271 33.7634C25 32.9748 25 31.8498 25 29.6V25.8333" stroke="white" stroke-width="2.5" stroke-linecap="round" stroke-linejoin="round"/>
</svg>


