<svg width="40" height="40" viewBox="0 0 40 40" fill="none" xmlns="http://www.w3.org/2000/svg">
<path d="M20 35C28.2843 35 35 28.2843 35 20C35 17.931 34.5811 15.9598 33.8235 14.1667M20 35C11.7157 35 5 28.2843 5 20C5 17.931 5.4189 15.9598 6.17652 14.1666M20 35C24.02 32.3091 26.6667 25.2007 26.6667 20C26.6667 14.7993 24.02 7.69087 20 5M20 35C15.98 32.3091 13.3333 25.2007 13.3333 20C13.3333 14.7993 15.98 7.69087 20 5M20 5C13.7847 5 8.45239 8.78009 6.17652 14.1666M20 5C26.2153 5 31.5476 8.78011 33.8235 14.1667M6.17652 14.1666C8.45238 19.5532 13.7848 23.3333 20 23.3333C26.2153 23.3333 31.5476 19.5532 33.8235 14.1667" stroke="white" stroke-width="2.5" stroke-linejoin="round"/>
</svg>


